<svg id="Calque_5" data-name="Calque 5" xmlns="http://www.w3.org/2000/svg" viewBox="0 0 1024 1024"><defs><style>.cls-1,.cls-2{fill:#358455;}.cls-1,.cls-3,.cls-4,.cls-5,.cls-6,.cls-7,.cls-8{stroke:#358455;stroke-miterlimit:10;}.cls-1{stroke-width:1.32px;}.cls-3,.cls-4,.cls-5,.cls-6,.cls-7,.cls-8{fill:none;}.cls-3{stroke-width:3.32px;}.cls-4,.cls-5,.cls-6{stroke-linecap:round;}.cls-4{stroke-width:3.3px;}.cls-5,.cls-8{stroke-width:3.96px;}.cls-6{stroke-width:2.64px;}.cls-7{stroke-width:5.28px;}</style></defs><path class="cls-1" d="M217.62,277.36a34.74,34.74,0,0,0,33.9-27.25v33.28H70.41a23.8,23.8,0,0,0,14.86-22.13V45.32A23.22,23.22,0,0,0,81.17,32,22.08,22.08,0,0,0,70.41,23.5l-.77-.31h66.09a23.19,23.19,0,0,0-10.37,8.59,22.79,22.79,0,0,0-3.87,12.92V277.36Z"/><path class="cls-1" d="M427.83,283.39H375.35V220.24A352.4,352.4,0,0,1,346.41,252q-7,6.34-12.08,10.6t-10.91,8.67a71.08,71.08,0,0,1-10.53,6.81,61.25,61.25,0,0,1-9.75,3.95,29.32,29.32,0,0,1-9.67,1.39A29,29,0,0,1,271.1,271a21.84,21.84,0,0,1-3.17-15.48q1.85-12.69,16.56-29.56Q306,200.89,322,185.57q3.87-3.72,6.42-6.35t5.88-6.27a55.82,55.82,0,0,0,5.19-6.42,45.41,45.41,0,0,0,3.25-5.73,9.6,9.6,0,0,0,1.08-5.34,7.17,7.17,0,0,0-2.16-4.26,7.83,7.83,0,0,0-9.45-1.31q-5.1,2.55-10.44,9A113.91,113.91,0,0,0,312,172.41q-4.34,7.13-7.12,12.38a56.74,56.74,0,0,0-2.79,5.57q-14.85-15.17-18.88-31.81t4.95-28.86a34.52,34.52,0,0,1,10.61-9.29,42.41,42.41,0,0,1,13.85-4.88c5.06-.87,9.08-1.42,12.07-1.62s6.82-.31,11.46-.31q18,0,31.89,4.41T390,129a56.3,56.3,0,0,1,13.08,15.48,60,60,0,0,1,6.81,16.64,72.86,72.86,0,0,1,1.7,15.63v84.67a22.27,22.27,0,0,0,4.1,13,23.2,23.2,0,0,0,10.92,8.51ZM350.58,243q8.84-8.51,24.77-27.7V166.06q0-21.36-11.45-33.9t-27.71-12.69a37.38,37.38,0,0,0-14.4,2.63,27.27,27.27,0,0,0-10.45,7.43,46.11,46.11,0,0,0-6.88,10.91,49.69,49.69,0,0,0-3.87,13.39,91.27,91.27,0,0,0-1,14.55,110.07,110.07,0,0,0,1.16,14.71q12.08-21.83,22.45-32.51a16.94,16.94,0,0,1,10.37-5.34,13.37,13.37,0,0,1,10.52,3.18q7.28,6.35,1.55,15.47-4.49,7.59-20.74,24.15-7.42,7.59-10.76,11.07t-8.9,10a62.85,62.85,0,0,0-8.05,11.3,21.47,21.47,0,0,0-2.63,9,35.35,35.35,0,0,0,5.42,22q5.56,8.82,12.3,11.38t14.48-1.55a83.58,83.58,0,0,0,11.53-7,134.75,134.75,0,0,0,10.45-9.44C349.55,244,350.17,243.41,350.58,243Z"/><path class="cls-1" d="M254.92,379.3,223,417.38a38.44,38.44,0,0,0,2.47-23.91,57.85,57.85,0,0,0-9.52-21.6,52.65,52.65,0,0,0-18-15.63,48.06,48.06,0,0,0-23.22-6q-19,0-35.45,16.87t-26,45.44q-9.6,28.56-9.6,61.68t10.22,61.22q10.22,28.25,27.55,45.05t37.62,17.87a63.69,63.69,0,0,0,24.45-3,59.58,59.58,0,0,0,18.65-9.91,69.43,69.43,0,0,0,13.55-15,99.83,99.83,0,0,0,9.44-16.95,133.65,133.65,0,0,0,5.88-17.18,116.47,116.47,0,0,1-2.86,18.35A74.51,74.51,0,0,1,240.68,573a59.47,59.47,0,0,1-13.39,16.56q-8,6.81-21.51,11.07t-31,3.79A98.15,98.15,0,0,1,132.1,593.3,113.79,113.79,0,0,1,97,565.6q-14.72-17.26-23.46-41.18a145.29,145.29,0,0,1-8.74-50.23,147.08,147.08,0,0,1,8.74-50.54Q82.32,399.59,97,382.17a110.8,110.8,0,0,1,35.06-27.71,93.27,93.27,0,0,1,42.64-10.29q21.21,0,43.34,9.75T254.92,379.3Z"/><path class="cls-1" d="M299.58,446.48a61.8,61.8,0,0,1,71.67,0q16.49,11.46,26.08,31a99.52,99.52,0,0,1,0,85.29q-9.6,19.58-26.08,31a61.76,61.76,0,0,1-71.67,0q-16.49-11.45-26.08-31a99.52,99.52,0,0,1,0-85.29Q283.1,457.95,299.58,446.48Zm18.27,142.18q8.11,10.76,17.57,10.76T353,588.66q8.13-10.75,12.93-29.1a163.73,163.73,0,0,0,0-78.71q-4.8-18.27-12.93-29t-17.56-10.75q-9.45,0-17.57,10.75t-12.93,29a163.73,163.73,0,0,0,0,78.71Q309.72,577.91,317.85,588.66Z"/><path class="cls-1" d="M575.81,604.37h-50V588.58q-4,7.27-13.24,11.53T491,604.37q-27.71,0-45.82-19.66t-18.11-48.14V467.69q0-17.81-14.86-24l51.08-9.14v132.2q0,13.62,7.51,22.6t20.2,9A37.92,37.92,0,0,0,513.19,591q10.45-7.35,12.62-17.88V467.69q0-8.82-4-14.94a24,24,0,0,0-11-9.05L562,434.56V583.32a22.94,22.94,0,0,0,13.78,21Z"/><path class="cls-1" d="M596.86,603.91a22.7,22.7,0,0,0,10.83-8.52,22.46,22.46,0,0,0,4-13V377q0-17.64-14.86-23.84L647.94,344V583.32a22.94,22.94,0,0,0,13.78,21h-66.1Z"/><path class="cls-1" d="M802.73,538.12a5.86,5.86,0,0,1,.16-1.08,6.91,6.91,0,0,0,.15-1.24,103.78,103.78,0,0,1-2.94,22.44q-1.86,6.81-3.79,12.15a74.12,74.12,0,0,1-5.73,11.85A45.06,45.06,0,0,1,782,593.07a43,43,0,0,1-12.46,7.51,50.86,50.86,0,0,1-17.1,3.64,87.11,87.11,0,0,1-26.78-2.87,81,81,0,0,1-24.07-11,62.85,62.85,0,0,1-19-20.43A80.28,80.28,0,0,1,672.4,540a112.6,112.6,0,0,1,.31-36.38q3.09-17.18,10.45-29.49a91.47,91.47,0,0,1,17.56-21.44,71.72,71.72,0,0,1,21.83-13.62,63.29,63.29,0,0,1,22.91-4.49q26.47,0,41.48,15.17a56.58,56.58,0,0,1,14.48,26.47A48.26,48.26,0,0,1,800,505.46a51.84,51.84,0,0,1-9.68,15.4,38.56,38.56,0,0,1-14.63,10.45,159,159,0,0,1-25.38,7.82q-12.07,2.55-39.63,6.42,3.25,22.61,15.94,37.77t28,14.39a41.58,41.58,0,0,0,18.58-5.1,43.77,43.77,0,0,0,13.39-11.07,67.89,67.89,0,0,0,8.67-14.78,93.58,93.58,0,0,0,5.26-15.17A96.54,96.54,0,0,0,802.73,538.12Zm-67.8-98.29q-14.7,6-22.52,32.81t-1.93,69.19q11.91-1.38,15.94-2.16,14.55-2.48,30.49-6.81,16.88-4.5,19.82-25.54,2.47-18.88-6.5-40.25-8.21-19.35-20.13-26Q742.21,436.89,734.93,439.83Z"/><path class="cls-1" d="M945.61,538.12a6.56,6.56,0,0,1,.15-1.08,7.09,7.09,0,0,0,.16-1.24A103.16,103.16,0,0,1,943,558.24q-1.85,6.81-3.79,12.15a74.12,74.12,0,0,1-5.73,11.85,44.82,44.82,0,0,1-8.59,10.83,43,43,0,0,1-12.46,7.51,50.86,50.86,0,0,1-17.1,3.64,87.11,87.11,0,0,1-26.78-2.87,81,81,0,0,1-24.07-11,62.93,62.93,0,0,1-19-20.43A80.11,80.11,0,0,1,815.27,540a112.89,112.89,0,0,1,.31-36.38q3.1-17.18,10.45-29.49a91.51,91.51,0,0,1,17.57-21.44,71.56,71.56,0,0,1,21.82-13.62,63.29,63.29,0,0,1,22.91-4.49q26.48,0,41.49,15.17a56.56,56.56,0,0,1,14.47,26.47,48.11,48.11,0,0,1-1.47,29.26,51.8,51.8,0,0,1-9.67,15.4,38.64,38.64,0,0,1-14.63,10.45,159.46,159.46,0,0,1-25.39,7.82q-12.07,2.55-39.63,6.42,3.25,22.61,16,37.77t28,14.39a41.5,41.5,0,0,0,18.57-5.1,43.77,43.77,0,0,0,13.39-11.07,67.89,67.89,0,0,0,8.67-14.78,92.63,92.63,0,0,0,5.26-15.17A98.08,98.08,0,0,0,945.61,538.12Zm-67.8-98.29q-14.71,6-22.53,32.81t-1.93,69.19q11.91-1.38,15.94-2.16,14.55-2.48,30.5-6.81,16.86-4.5,19.81-25.54,2.48-18.88-6.5-40.25-8.21-19.35-20.12-26Q885.08,436.89,877.81,439.83Z"/><path class="cls-1" d="M144.87,665.14A135.24,135.24,0,0,1,196.18,675a129.1,129.1,0,0,1,41.95,27.09,120.78,120.78,0,0,1,27.71,42.18,132.63,132.63,0,0,1,9.21,53.4,130.09,130.09,0,0,1-11.38,50.16A127.11,127.11,0,0,1,235,888.43q-18.12,17.1-43.89,27a152.8,152.8,0,0,1-55.34,9.91H69.64a23.82,23.82,0,0,0,10.91-8.83,23.19,23.19,0,0,0,4.1-13.31V687.28A23.19,23.19,0,0,0,80.55,674a23.82,23.82,0,0,0-10.91-8.83ZM238.82,797.8a151.6,151.6,0,0,0-5.18-46q-6-21.13-16.56-35.76a111.37,111.37,0,0,0-24.77-24.92A101.37,101.37,0,0,0,162.67,676a105.57,105.57,0,0,0-31.43-4.8H120.87V919.31q9.6,0,14.86-.31,29.73-2.16,52.94-18.34t36.22-43Q237.9,830.93,238.82,797.8Z"/><path class="cls-1" d="M325.28,767.46a61.8,61.8,0,0,1,71.67,0q16.49,11.46,26.08,31a99.61,99.61,0,0,1,0,85.29q-9.6,19.58-26.08,31a61.76,61.76,0,0,1-71.67,0q-16.48-11.45-26.09-31a99.61,99.61,0,0,1,0-85.29Q308.79,778.91,325.28,767.46Zm18.26,142.18q8.13,10.75,17.57,10.75t17.57-10.75q8.13-10.75,12.92-29.1a163.78,163.78,0,0,0,0-78.72q-4.78-18.26-12.92-29T361.11,762q-9.44,0-17.57,10.76t-12.92,29a163.78,163.78,0,0,0,0,78.72Q335.41,898.87,343.54,909.64Z"/><path class="cls-1" d="M601.5,925.35h-50V909.56q-4,7.28-13.24,11.53t-21.59,4.26q-27.72,0-45.82-19.66t-18.11-48.14V788.67q0-17.8-14.86-24L489,755.54V887.73q0,13.63,7.51,22.6t20.2,9A38,38,0,0,0,538.89,912q10.46-7.35,12.62-17.88V788.67a26.6,26.6,0,0,0-4-14.94,24.06,24.06,0,0,0-11-9.06l51.24-9.13V904.3a22.94,22.94,0,0,0,13.77,21.05Z"/><path class="cls-1" d="M745.77,859.1a6.78,6.78,0,0,1,.15-1.09,6.16,6.16,0,0,0,.16-1.24,104,104,0,0,1-2.94,22.45q-1.86,6.81-3.79,12.15a75.39,75.39,0,0,1-5.73,11.84A45.17,45.17,0,0,1,725,914.05a43.15,43.15,0,0,1-12.46,7.51,51.11,51.11,0,0,1-17.11,3.63,87.14,87.14,0,0,1-26.78-2.86,81.14,81.14,0,0,1-24.07-11,63,63,0,0,1-19-20.43,80.27,80.27,0,0,1-10.22-30,113.11,113.11,0,0,1,.31-36.37q3.1-17.19,10.45-29.49a91.51,91.51,0,0,1,17.57-21.44A71.22,71.22,0,0,1,665.59,760a63.24,63.24,0,0,1,22.91-4.49q26.46,0,41.48,15.17,10.53,11,7.12,28.79T719,832.32q2.47-11.3-.23-25.47a92.27,92.27,0,0,0-8.67-25.54,49.72,49.72,0,0,0-14.78-17.72q-8.84-6.35-17.34-2.79-15,6.19-23.22,31.5t-2.48,67.42l1.4,6.81q3.24,22.59,15.94,37.77t28,14.39a41.51,41.51,0,0,0,18.57-5.11,43.37,43.37,0,0,0,13.39-11.06,67.17,67.17,0,0,0,8.67-14.79,91.07,91.07,0,0,0,5.26-15.17A95,95,0,0,0,745.77,859.1Z"/><path class="cls-1" d="M883.22,859.1a6,6,0,0,1,.16-1.09,6.81,6.81,0,0,0,.15-1.24,102.73,102.73,0,0,1-2.94,22.45q-1.86,6.81-3.79,12.15a73.65,73.65,0,0,1-5.73,11.84,44.93,44.93,0,0,1-8.59,10.84A43,43,0,0,1,850,921.56a51.1,51.1,0,0,1-17.1,3.63,87.11,87.11,0,0,1-26.78-2.86,81,81,0,0,1-24.07-11,62.93,62.93,0,0,1-19-20.43,80.1,80.1,0,0,1-10.22-30,112.82,112.82,0,0,1,.31-36.37q3.09-17.19,10.45-29.49a91.51,91.51,0,0,1,17.57-21.44A71.18,71.18,0,0,1,803,760,63.29,63.29,0,0,1,826,755.54q26.47,0,41.49,15.17a56.56,56.56,0,0,1,14.47,26.47,48.11,48.11,0,0,1-1.47,29.26,51.64,51.64,0,0,1-9.68,15.4,38.6,38.6,0,0,1-14.62,10.45,158.35,158.35,0,0,1-25.39,7.81q-12.07,2.56-39.63,6.43,3.25,22.59,16,37.77t28,14.39a41.52,41.52,0,0,0,18.58-5.11,43.61,43.61,0,0,0,13.39-11.06,68,68,0,0,0,8.67-14.79A92,92,0,0,0,881,872.56,96.41,96.41,0,0,0,883.22,859.1Zm-67.79-98.3q-14.71,6-22.53,32.82T791,862.81q11.91-1.39,15.94-2.17,14.55-2.48,30.5-6.81,16.86-4.49,19.81-25.54,2.47-18.88-6.5-40.24-8.21-19.35-20.12-26Q822.7,757.87,815.43,760.8Z"/><path class="cls-2" d="M683.9,430.49a.28.28,0,0,0,.29.46c11.33-5.51,76.72-36.44,97.61-27.78C804.58,412.61,772.27,349.41,683.9,430.49Z"/><circle class="cls-3" cx="653.85" cy="113.63" r="20.04"/><line class="cls-4" x1="654.5" y1="85.79" x2="654.5" y2="79.73"/><line class="cls-4" x1="664.59" y1="148.23" x2="662.02" y2="139.26"/><line class="cls-4" x1="640.06" y1="89.94" x2="635.11" y2="82.02"/><line class="cls-4" x1="681.7" y1="137.54" x2="674.76" y2="131.29"/><line class="cls-4" x1="630" y1="101.1" x2="621.62" y2="97.01"/><line class="cls-4" x1="690.54" y1="119.41" x2="681.35" y2="117.79"/><line class="cls-4" x1="627.4" y1="115.91" x2="621.61" y2="116.52"/><line class="cls-4" x1="688.43" y1="99.35" x2="679.78" y2="102.84"/><line class="cls-4" x1="633.03" y1="129.83" x2="628.22" y2="133.58"/><line class="cls-4" x1="676.01" y1="83.45" x2="670.53" y2="91"/><line class="cls-4" x1="645.18" y1="138.67" x2="641.99" y2="147.44"/><path class="cls-4" d="M575.72,79.74h145.2a.52.52,0,0,0,.48-.75c-.59-1.22-1.07-3.25-3.45-5.09a12.92,12.92,0,0,0-5.73-2.6,1.85,1.85,0,0,1-1.36-1.61c-.23-2.44-2.44-6.53-7.27-10.46-3.24-2.62-9.82-4-13.16-3.89a3.84,3.84,0,0,1-2.72-1c-2-1.8-3.07-6.82-13.82-6.57"/><path class="cls-4" d="M862.91,107.27H767.35c0-4.66,5.39-5.3,7-5.3-.24-8,6.35-11.87,12.79-9.88,1.85-3.36,6.76-5.33,10.46-4.81C802.74,74.61,817,74.84,817,74.84"/><path class="cls-5" d="M615.08,187.81c45.9,0-2.48-90.38-2.48-90.38S565.26,187.81,615.08,187.81Z"/><line class="cls-5" x1="613.57" y1="233.85" x2="613.57" y2="156.62"/><line class="cls-6" x1="627.08" y1="154.43" x2="613.62" y2="169.77"/><line class="cls-6" x1="600.95" y1="165.05" x2="613.73" y2="177.53"/><path class="cls-5" d="M610.49,187.52c1.13,14.77-3.26,26.22-19.6,26.22-16.75,0-22.51-10.21-22.79-23.79"/><path class="cls-5" d="M596,139.24h0c-4.18-9.43-7.62-15.88-7.62-15.88a250.34,250.34,0,0,0-10.54,23.71"/><line class="cls-5" x1="589.14" y1="235.2" x2="589.38" y2="182.54"/><line class="cls-6" x1="600.12" y1="183.51" x2="589.43" y2="195.7"/><line class="cls-6" x1="576.76" y1="190.97" x2="589.54" y2="203.45"/><path class="cls-5" d="M561.48,190.72c45.9,0-2.48-90.38-2.48-90.38S511.67,190.72,561.48,190.72Z"/><line class="cls-5" x1="559.97" y1="236.75" x2="559.97" y2="159.52"/><line class="cls-6" x1="573.49" y1="157.33" x2="560.03" y2="172.68"/><line class="cls-6" x1="547.35" y1="167.96" x2="560.13" y2="180.43"/><path class="cls-5" d="M552.46,189.46c3.44,18.51.79,34.47-18.49,34.47-9,0-14.82-3-18.32-7.77V172.85a244.49,244.49,0,0,1,15.84-39.31s4,7.55,8.69,18.31"/><line class="cls-5" x1="532.45" y1="238.92" x2="532.45" y2="192.73"/><line class="cls-6" x1="545.97" y1="190.54" x2="532.51" y2="205.88"/><line class="cls-6" x1="519.84" y1="201.16" x2="532.62" y2="213.64"/><path class="cls-5" d="M514.73,243.5C623,222.05,709.35,247.77,739.21,264"/><path class="cls-5" d="M662,240.5C719.8,194.34,847.79,200.19,890.55,202"/><path class="cls-5" d="M719.74,213.74c0-.5.06-67.29.06-67.29l21.28-20.15L841.29,128l19.56,20.15v52.44"/><polyline class="cls-5" points="721.48 146.45 760.61 146.45 760.61 203.27"/><polyline class="cls-5" points="741.08 126.3 760.61 146.45 860.85 148.1 860.85 124.97 852.81 124.97 852.81 139.88"/><polygon class="cls-5" points="839.97 159.77 820.8 159.77 820.8 169.63 820.8 179.5 839.97 179.5 839.97 159.77"/><line class="cls-6" x1="839.97" y1="169.63" x2="820.8" y2="169.63"/><polygon class="cls-5" points="805.26 159.77 786.09 159.77 786.09 169.63 786.09 179.5 805.26 179.5 805.26 159.77"/><line class="cls-6" x1="805.26" y1="169.63" x2="786.09" y2="169.63"/><path class="cls-5" d="M730.59,210.08s-3.71-44.27,9.33-44c15,.32,11,38.26,11,38.26"/><line class="cls-6" x1="739.86" y1="189.53" x2="730.59" y2="189.53"/><path class="cls-7" d="M702.07,282.94H489.75V179.25c0-114.42,151.42-153.64,212.32-152.08C763,25.61,914.38,64.83,914.38,179.25V282.94Z"/><path class="cls-8" d="M701.59,264H512.39V175.67c0-97.48,134.93-130.89,189.2-129.57,54.26-1.32,189.19,32.09,189.19,129.57V264Z"/></svg>