<?xml version="1.0" encoding="utf-8"?>
<!-- Generator: Adobe Illustrator 25.4.1, SVG Export Plug-In . SVG Version: 6.00 Build 0)  -->
<svg version="1.1" id="Calque_2_00000026141678431792927490000000919967964473013430_"
	 xmlns="http://www.w3.org/2000/svg" xmlns:xlink="http://www.w3.org/1999/xlink" x="0px" y="0px" viewBox="0 0 1024 1024"
	 style="enable-background:new 0 0 1024 1024;" xml:space="preserve">
<style type="text/css">
	.st0{fill:#FFFFFF;}
</style>
<path class="st0" d="M582,878.3c-12.3,0-24.3-5.4-32.5-15.2L85.3,304.7v531.4c0,23.3-18.9,42.2-42.2,42.2S0.8,859.4,0.8,836.1V187.9
	c0-17.8,11.1-33.7,27.9-39.7c16.7-6,35.4-1,46.8,12.7l464.3,558.4V187.9c0-23.3,18.9-42.2,42.2-42.2c23.3,0,42.2,18.9,42.2,42.2
	v648.3c0,17.8-11.1,33.7-27.9,39.7C591.6,877.5,586.8,878.3,582,878.3z"/>
<path class="st0" d="M981.8,878.3H582c-23.3,0-42.2-18.9-42.2-42.2s18.9-42.2,42.2-42.2h399.8c23.3,0,42.2,18.9,42.2,42.2
	S1005.1,878.3,981.8,878.3z"/>
<circle class="st0" cx="787.3" cy="655.2" r="58.7"/>
</svg>
